<svg xmlns="http://www.w3.org/2000/svg" xmlns:xlink="http://www.w3.org/1999/xlink" width="28" height="28" viewBox="0 0 28 28"><defs><style>.a{fill:#fff;}.b{clip-path:url(#a);}</style><clipPath id="a"><rect class="a" width="28" height="28" transform="translate(0.075)"/></clipPath></defs><g class="b" transform="translate(-0.075)"><path class="a" d="M28,18.949a9.078,9.078,0,0,0-4.979-8.084A12.346,12.346,0,0,1,10.865,23.021a9.054,9.054,0,0,0,12.689,3.72L27.96,27.96l-1.219-4.406A9.018,9.018,0,0,0,28,18.949Zm0,0"/><path class="a" d="M21.383,10.691a10.691,10.691,0,1,0-19.9,5.434L.039,21.343,5.257,19.9a10.694,10.694,0,0,0,16.126-9.209ZM9.051,8.2H7.41a3.281,3.281,0,1,1,5.5,2.421L11.512,11.9V13.18H9.871v-2L11.8,9.414A1.624,1.624,0,0,0,12.332,8.2a1.641,1.641,0,1,0-3.281,0Zm.82,6.617h1.641v1.641H9.871Zm0,0"/></g></svg>