<svg xmlns="http://www.w3.org/2000/svg" width="247.689" height="76.661" viewBox="0 0 247.689 76.661"><defs><style>.a{fill:#fff;}.b{fill:none;stroke:#fff;stroke-miterlimit:2;stroke-width:2px;}</style></defs><g transform="translate(-835.715 -31.61)"><path class="a" d="M107.024-388.614c-.087-.608-.145-1.217-.2-1.855q-.131-1.521-.348-3.043c-.145-1.014-.319-2-.464-3.013l-.435-2.782a21.483,21.483,0,0,1-.348-2.782c-.087-1.3-.174-2.579-.261-3.883s-.145-2.608-.232-3.912a4.635,4.635,0,0,1,0-.9v-.985h.29a.8.8,0,0,1,.261.029c.637.029,1.275.029,1.912.058l1.913.087c.609.029,1.188.029,1.768.029h1.768a.468.468,0,0,0,.29-.116,5.27,5.27,0,0,0,.464-.377l.435-.348a2.435,2.435,0,0,0-.463-.927,1.662,1.662,0,0,0-.927-.29c-.9-.087-1.768-.174-2.666-.261-.9-.058-1.8-.116-2.695-.2l-1.159-.087c-.406-.029-.811-.058-1.246-.087.029-.435.029-.869.058-1.3,0-.435.029-.84.058-1.246a30.58,30.58,0,0,1,.435-3.216c.058-.377.145-.782.232-1.159a8.413,8.413,0,0,1,.348-1.13,2.308,2.308,0,0,1,.464-.753,1.549,1.549,0,0,1,.724-.493,2.687,2.687,0,0,1,.956-.087,3.009,3.009,0,0,1,.9.319,2.692,2.692,0,0,1,.666.608,1.518,1.518,0,0,1,.29.782,4.9,4.9,0,0,0,.116.638,2.611,2.611,0,0,0,.174.637.967.967,0,0,0,1.275.753,7.165,7.165,0,0,1,.145-1.1c.058-.348.116-.7.174-1.072.058-.348.087-.7.116-1.072a3.782,3.782,0,0,0-.174-1.1.636.636,0,0,1-.029-.232.567.567,0,0,0-.029-.2c-.087-.319-.174-.666-.261-.985a1.387,1.387,0,0,0-.637-.782,10.272,10.272,0,0,0-1.681-.869,4.811,4.811,0,0,0-1.826-.261,15.369,15.369,0,0,0-2.347.406,5.35,5.35,0,0,0-2,.956,7.386,7.386,0,0,0-2.115,2.84,22.259,22.259,0,0,0-1.043,3.245,31.807,31.807,0,0,0-.58,3.39c-.029.406-.087.811-.145,1.188-.058.406-.116.84-.174,1.275h-.377a1.536,1.536,0,0,1-.377.029,26.9,26.9,0,0,0-3.738.145c-1.246.145-2.492.29-3.738.406a.775.775,0,0,0-.609.377.931.931,0,0,0-.2.7.342.342,0,0,0,.319.319c.261.029.493.029.724.058a5.653,5.653,0,0,0,.724.058c1.159.029,2.318.058,3.477.058l3.448.087h.116c.029.029.058.029.116.058v.724c-.029,1.217-.029,2.434,0,3.622a13.13,13.13,0,0,0,.087,1.507c.029.493.058,1.014.087,1.507a35.06,35.06,0,0,0,.232,3.506,29.259,29.259,0,0,0,.637,3.477c.319,1.275.666,2.55,1.014,3.825.319,1.275.7,2.55,1.072,3.825a20.26,20.26,0,0,0,.84,2.2,14.647,14.647,0,0,0,1.1,2.115,1.842,1.842,0,0,0,.724.7c.261.174.551.348.84.522a1.33,1.33,0,0,0,.406.2,2.931,2.931,0,0,1,.435.2.528.528,0,0,0,.58-.058,1.283,1.283,0,0,0,.377-.724,7.556,7.556,0,0,0,.087-1.8C107.139-387.339,107.082-388.005,107.024-388.614Z" transform="translate(760.026 468.705)"/><path class="a" d="M264.892-331.157c-.029-.145-.058-.319-.087-.464a21.864,21.864,0,0,0-.435-2.811c-.232-.9-.493-1.826-.782-2.753a3.79,3.79,0,0,0-.551-1.014,2.38,2.38,0,0,0-.927-.666,2.478,2.478,0,0,0-1.391-.261,1.3,1.3,0,0,0-.956.782,14.5,14.5,0,0,0-.521,1.449,4.477,4.477,0,0,0-.2,1.536,1.917,1.917,0,0,0,.029.406,2.184,2.184,0,0,1,.029.435,23.1,23.1,0,0,0,.058,2.84c.058.956.145,1.883.232,2.84.087.753.2,1.507.319,2.26.087.754.2,1.507.29,2.26.087.493.145,1.014.232,1.507.087.522.145,1.043.232,1.536.087.811.2,1.623.29,2.434s.174,1.623.261,2.463c.087.753.174,1.507.261,2.231q.13,1.13.261,2.26c.058.435.116.811.145,1.13a6.774,6.774,0,0,0,.145.869c.029.29.087.579.145.9s.116.7.174,1.13c.087.551.174,1.072.29,1.594.116.551.232,1.1.377,1.652.2.956.435,1.912.638,2.869s.464,1.941.724,2.9a6.444,6.444,0,0,0,.463,1.246c.174.435.348.84.522,1.246a4.905,4.905,0,0,0,.666,1.043,6.369,6.369,0,0,0,.869.9.975.975,0,0,0,.493.232,1.161,1.161,0,0,0,.551-.029,1,1,0,0,0,.464-.232.569.569,0,0,0,.261-.377,6.773,6.773,0,0,0,.145-.869l.087-.869q.043-.522.087-1.043c0-.319,0-.666.029-1.014a27.5,27.5,0,0,0-.087-3.1c-.087-1.014-.232-2.057-.377-3.1-.116-.724-.232-1.42-.319-2.144-.116-.7-.232-1.391-.319-2.115-.029-.319-.087-.551-.116-.724a4.485,4.485,0,0,1-.145-.493c-.029-.145-.087-.29-.116-.464a3.216,3.216,0,0,1-.145-.7c-.087-.608-.2-1.188-.319-1.768a7.116,7.116,0,0,1-.2-1.738q-.044-1.261-.174-2.521c-.116-.811-.2-1.623-.261-2.463-.029-.377-.058-.753-.058-1.1-.029-.348-.029-.7-.058-1.014.551-.145,1.1-.319,1.623-.463.493-.145,1.014-.29,1.507-.435a7.259,7.259,0,0,0,2.637-1.3,19.513,19.513,0,0,0,2.173-1.883c.493-.493.927-.985,1.362-1.507a9.707,9.707,0,0,0,1.13-1.71c.29-.551.551-1.1.811-1.652a8.818,8.818,0,0,0,.609-1.739,16.2,16.2,0,0,0,.348-1.623,7.887,7.887,0,0,0,.058-1.652c-.029-.145-.029-.319-.058-.493a1.009,1.009,0,0,0-.2-.435,5.069,5.069,0,0,0-1.1-.985,2.835,2.835,0,0,0-1.362-.464,6.824,6.824,0,0,0-4.433,1.014,11.2,11.2,0,0,0-1.941,1.507,20.131,20.131,0,0,0-1.71,1.8c-.435.551-.869,1.1-1.275,1.652-.435.579-.869,1.188-1.3,1.8Q264.936-330.94,264.892-331.157Zm1.971,4.115c.029-.116.058-.232.087-.377a20.729,20.729,0,0,1,1.652-3.187,11.925,11.925,0,0,1,2.318-2.695q.478-.391.956-.869c.29-.29.609-.579.927-.84a4.045,4.045,0,0,1,2.144-.84,8.9,8.9,0,0,1-.377,2.405,6.181,6.181,0,0,1-1.188,2.115,18.747,18.747,0,0,1-3.883,3.506,8.619,8.619,0,0,1-1.246.7c-.435.2-.869.435-1.3.666a.921.921,0,0,1-.2-.174C266.776-326.782,266.834-326.9,266.863-327.042Z" transform="translate(617.313 394.151)"/><path class="b" d="M81.454-444.664a37.33,37.33,0,0,1-37.33,37.33,37.331,37.331,0,0,1-37.33-37.33,37.331,37.331,0,0,1,37.33-37.331A37.33,37.33,0,0,1,81.454-444.664Z" transform="translate(829.922 514.605)"/><path class="a" d="M383.8-366.258h.287v-2.782h-.361l-.956,2.347h-.021l-.945-2.347h-.382v2.782h.276v-2.251l.032-.011.892,2.262h.266l.881-2.188.032.011ZM381-369.04h-1.986v.3h.881v2.485h.287v-2.485H381Z" transform="translate(516.18 419.351)"/><path class="a" d="M573.156-376.815q-.78,0-1.493-.011t-1.422.011q-.851,0-1.7-.057t-1.7-.149q-.323-.023-.608-.023c-.192,0-.386-.008-.586-.023-.184,0-.267.1-.253.3a12.5,12.5,0,0,1,.2,1.768q.033.9.035,1.791c0,.168.022.272.068.31a.516.516,0,0,0,.3.057,2.173,2.173,0,0,0,.229-.011,2.288,2.288,0,0,0,.231-.035,15.444,15.444,0,0,1,2.7-.264q1.341-.011,2.72.08.756.046,1.5.1t1.5.1q.735.046,1.482.149t1.48.218l.69.069a.607.607,0,0,1,.47.252.533.533,0,0,1-.035.528,1.048,1.048,0,0,1-.253.344,4.028,4.028,0,0,1-1.56.965,7.635,7.635,0,0,1-1.815.344q-2.156.184-4.3.207t-4.3,0h-.712a.688.688,0,0,0-.424.08.679.679,0,0,0-.082.425,1.641,1.641,0,0,1-.011.206.675.675,0,0,0,.011.207q.024,1.516-.057,3.008t-.058,3.007q0,1.171.069,2.33t.024,2.331q-.047.987-.08,1.951t-.08,1.928q-.047.735-.093,1.446t-.138,1.446a3.94,3.94,0,0,1-.173.815,1.2,1.2,0,0,1-.52.631.917.917,0,0,0-.231.276.755.755,0,0,1-.577.321c-.2.016-.4.027-.588.035a3.311,3.311,0,0,1-.611-.035,1.429,1.429,0,0,1-.831-.378,1.557,1.557,0,0,1-.484-.792,13.249,13.249,0,0,1-.415-2.663q-.071-1.332-.047-2.686.024-1.171.046-2.353t-.022-2.353q-.047-1.033-.08-2.066t.011-2.066q.021-.62.046-1.228c.016-.406.038-.807.069-1.205.014-.153.03-.3.046-.448a4.168,4.168,0,0,0,.024-.448q0-1.171.046-2.344t.069-2.37q.021-.967.08-1.9c.039-.621.088-1.246.151-1.875a7.941,7.941,0,0,1,.668-2.393,1.738,1.738,0,0,1,.773-.748,1.866,1.866,0,0,1,1.049-.242c.093.015.185.027.278.034a1.084,1.084,0,0,0,.277-.011q.646-.046,1.279-.057c.423-.008.847,0,1.276.035q2.364.137,4.707.126t4.706.035a13.129,13.129,0,0,1,1.343.07q.676.07,1.343.115a2.4,2.4,0,0,1,.792.231,2.429,2.429,0,0,0,.815.231.249.249,0,0,1,.184.278.43.43,0,0,0-.024.139.16.16,0,0,1-.046.115q-.254.3-.482.59a3.328,3.328,0,0,1-.517.521,3.106,3.106,0,0,1-.632.394,2.08,2.08,0,0,1-.781.185,25.121,25.121,0,0,1-2.512.058C574.766-376.873,573.953-376.861,573.156-376.815Z" transform="translate(363.169 429.78)"/><path class="a" d="M650.29-316.433h.115a.87.87,0,0,0,.207-.092,5.253,5.253,0,0,0,2-2.089q.207-.39.379-.781c.115-.26.242-.52.379-.78q.391-.735.839-1.424a6.725,6.725,0,0,0,.723-1.492,11.934,11.934,0,0,1,.528-1.217c.2-.4.382-.8.552-1.194q.32-.78.643-1.561a15.25,15.25,0,0,0,.552-1.584c.046-.168.083-.337.115-.505a1.383,1.383,0,0,0-.024-.551,2.914,2.914,0,0,0-.471.126,3.116,3.116,0,0,0-.424.2q-.825.413-1.618.872a15.611,15.611,0,0,0-1.527,1.01q-.6.46-1.125.953a3.87,3.87,0,0,0-.848,1.159q-.139.3-.288.585a5.639,5.639,0,0,0-.264.585c-.123.321-.24.647-.357.976a9.053,9.053,0,0,0-.286,1,5.828,5.828,0,0,0-.162.884c-.03.3-.06.6-.091.907a11.12,11.12,0,0,0-.08,1.515,9.352,9.352,0,0,0,.149,1.515,4.445,4.445,0,0,0,.126.516A1.244,1.244,0,0,0,650.29-316.433Zm11.02,5.648a1.16,1.16,0,0,1-.5-.069,1.621,1.621,0,0,1-.448-.184,1.636,1.636,0,0,1-.448-.39,8.1,8.1,0,0,1-1.056-2.089q-.368-1.1-.643-2.273c-.108-.474-.2-.949-.277-1.423s-.137-.956-.184-1.446q-.115-1.1-.24-2.17T657.27-323c-.014-.2-.027-.4-.033-.6s-.028-.413-.058-.643c-.138.169-.256.326-.357.471a2.123,2.123,0,0,0-.24.471,19.747,19.747,0,0,1-.952,2.147q-.54,1.045-1.09,2.1a7.108,7.108,0,0,0-.437.884,7.334,7.334,0,0,1-.437.884,6.749,6.749,0,0,1-.39.609c-.138.191-.275.379-.413.562a13.8,13.8,0,0,1-1.056,1.159,4.626,4.626,0,0,1-1.287.884,4.327,4.327,0,0,1-2.432.482,2.012,2.012,0,0,1-1.045-.367,3.428,3.428,0,0,1-.792-.8,3.337,3.337,0,0,1-.541-1.033,6.19,6.19,0,0,1-.24-1.148,9.151,9.151,0,0,1-.058-2.192,20.212,20.212,0,0,1,.333-2.193q.184-.8.4-1.573a7.573,7.573,0,0,1,.608-1.5,11.764,11.764,0,0,1,2.341-3.1,18.715,18.715,0,0,1,1.815-1.515,12.893,12.893,0,0,1,2.042-1.217,16.281,16.281,0,0,1,2.215-.872,16.306,16.306,0,0,1,2.284-.528.248.248,0,0,0,.115-.023.208.208,0,0,1,.093-.023q.184-.574.344-1.09t.344-1.045a.521.521,0,0,1,.288-.356.935.935,0,0,1,.539-.057,1.082,1.082,0,0,1,.861.471,1.868,1.868,0,0,1,.333.815,3.867,3.867,0,0,1,.08,1.079q-.033.551-.08,1.079-.068,1.355-.115,2.7a22.457,22.457,0,0,0,.069,2.7q.137,1.7.4,3.34t.632,3.294q.2.988.459,1.963t.5,1.94c.093.367.195.727.31,1.079s.234.712.357,1.079c.016.061.038.169.069.321a.8.8,0,0,1-.069.516,2.231,2.231,0,0,1-.344.425,1.447,1.447,0,0,1-.4.287q-.219.1-.424.2C661.647-310.885,661.479-310.831,661.31-310.785Z" transform="translate(291.674 391.23)"/><path class="a" d="M773.257-326.712q.184-.459.321-.838t.3-.769q.344-.8.69-1.607t.757-1.561a4.228,4.228,0,0,1,.815-1.068,3.409,3.409,0,0,1,1.16-.723,1.323,1.323,0,0,1,1.078,0c.168.077.33.153.482.23s.314.153.482.229a1.261,1.261,0,0,1,.47.425c.116.176.234.349.357.517a8.332,8.332,0,0,1,1.309,4.431c0,.26,0,.52.011.781s.019.52.035.781a1.636,1.636,0,0,0,.069.275c.123-.306.233-.6.333-.884s.2-.555.309-.815q.528-1.309,1.136-2.56a15.258,15.258,0,0,1,1.458-2.4,8.864,8.864,0,0,1,1.263-1.389,7.918,7.918,0,0,1,1.56-1.067,2.9,2.9,0,0,1,1.218-.356,3.814,3.814,0,0,1,1.263.149,1.386,1.386,0,0,1,.573.356,2.312,2.312,0,0,1,.39.562,9.113,9.113,0,0,1,1.194,3.949q.045.873.127,1.733c.053.574.094,1.152.126,1.733q.045,1.056.022,2.089a15.555,15.555,0,0,1-.182,2.066,17.379,17.379,0,0,0-.149,2.112q-.014,1.056.035,2.135.045.528.057,1.056t.058,1.056a1.623,1.623,0,0,0,.022.276c.016.092.031.184.046.275a1.415,1.415,0,0,1,.035.4.809.809,0,0,1-.149.4.958.958,0,0,0-.171.31q-.059.172-.1.333a1.622,1.622,0,0,1-.275.5.846.846,0,0,1-.413.3q-.323.115-.666.253a1.1,1.1,0,0,1-.735.023.657.657,0,0,1-.481-.528,13.1,13.1,0,0,1-.368-1.527,10.561,10.561,0,0,1-.162-1.573q0-.6-.011-1.205t.035-1.205q.047-.78.115-1.561t.115-1.561c.031-.336.046-.666.046-.987s.016-.65.047-.987q.045-.528.137-1.079t.162-1.079q.09-.734.182-1.435c.061-.467.116-.945.162-1.435q.045-.665.08-1.331c.023-.444.049-.888.08-1.332a3.33,3.33,0,0,0-.115-1.194.258.258,0,0,0-.3-.207,3.239,3.239,0,0,0-.482.08,1.7,1.7,0,0,0-.459.195,6.466,6.466,0,0,0-1.642,1.435,13.673,13.673,0,0,0-1.229,1.8c-.259.474-.509.956-.745,1.446s-.471.987-.7,1.492q-.255.551-.459,1.113t-.391,1.136q-.252.8-.459,1.6t-.391,1.6a11.7,11.7,0,0,0-.206,1.24c-.046.413-.085.826-.115,1.24q-.092,1.01-.149,2t-.173,2a2.649,2.649,0,0,1-.3,1.033,2.057,2.057,0,0,1-.779.8,2.681,2.681,0,0,0-.3.2c-.093.069-.184.142-.276.218a.2.2,0,0,1-.091.057.491.491,0,0,0-.093.034,1.224,1.224,0,0,1-.826-.069,1.223,1.223,0,0,1-.665-.5,2.785,2.785,0,0,1-.4-.953c-.069-.329-.126-.669-.173-1.022q-.137-.8-.217-1.607a12.493,12.493,0,0,1-.058-1.63c0-.092,0-.187-.011-.287s-.02-.2-.035-.31a2.124,2.124,0,0,1-.024-.31.442.442,0,0,1,.115-.287.382.382,0,0,0,.024-.161c-.016-.184-.035-.363-.058-.54a4.165,4.165,0,0,1-.035-.517q0-.344.024-.688c.014-.23.024-.467.024-.712a.755.755,0,0,0,0-.253,1.625,1.625,0,0,1-.024-.276l.207-2.41c.03-.321.06-.639.091-.953s.061-.631.091-.953q.071-.6.138-1.205t.115-1.205a9.163,9.163,0,0,0,.035-1.033,3.008,3.008,0,0,0-.218-1.033,6.726,6.726,0,0,0-.712.677,3.684,3.684,0,0,0-.552.815,4.236,4.236,0,0,1-.32.539q-.184.264-.344.54a7.375,7.375,0,0,0-.528,1.228q-.207.632-.391,1.274-.184.6-.332,1.182T774.865-324q-.255.965-.426,1.906a12.471,12.471,0,0,0-.195,1.951,8.186,8.186,0,0,1-.046.861,7.824,7.824,0,0,0-.046.861c0,.474.006.945.022,1.412s.038.93.069,1.389a6.647,6.647,0,0,1,0,.792,4.439,4.439,0,0,0,.024.792,1.475,1.475,0,0,1,.011.31c-.008.1-.011.2-.011.31a2.115,2.115,0,0,1-.093.666.862.862,0,0,1-.264.39,1.156,1.156,0,0,1-.424.207,1.433,1.433,0,0,1-.493.092H772.5a.761.761,0,0,1-.3-.057c-.093-.038-.184-.08-.276-.126a.9.9,0,0,1-.264-.138,1.356,1.356,0,0,1-.195-.229,3.208,3.208,0,0,1-.5-1.125c-.063-.26-.115-.516-.162-.769s-.091-.509-.138-.769q-.113-.8-.229-1.619t-.229-1.618q-.115-.872-.218-1.71t-.149-1.711q-.205-2.893-.275-5.785-.045-1.079-.035-2.135t.035-2.158c.016-.536.038-1.071.069-1.607s.061-1.071.091-1.607a.4.4,0,0,1,.276-.39,1.222,1.222,0,0,1,.861-.1,1.11,1.11,0,0,1,.723.493,5.775,5.775,0,0,1,.437.746,4.5,4.5,0,0,1,.3.815,6.472,6.472,0,0,0,.184.769,4.611,4.611,0,0,1,.16.769,9.211,9.211,0,0,1,.126,1.022q.035.516.1,1.044.092.8.1,1.641A6.345,6.345,0,0,0,773.257-326.712Z" transform="translate(187.028 392.51)"/><path class="a" d="M927.64-332.881a.972.972,0,0,1-.32.092.8.8,0,0,1-.357-.035.686.686,0,0,1-.32-.253,1.336,1.336,0,0,1-.218-.585,1.217,1.217,0,0,1,.035-.654,1.524,1.524,0,0,1,.264-.448,1.5,1.5,0,0,1,.459-.344c.047-.031.149-.015.309.046s.325.13.495.207a1.081,1.081,0,0,1,.493.528,1.929,1.929,0,0,1,.24.734.362.362,0,0,1-.1.264,1.164,1.164,0,0,1-.276.2,2.075,2.075,0,0,1-.355.149C927.863-332.946,927.748-332.912,927.64-332.881Zm1.769,17.953q.068.6.115,1.125.045.46.069.872a2.07,2.07,0,0,1-.023.574,1.336,1.336,0,0,1-.368.666.845.845,0,0,1-.688.184,1.7,1.7,0,0,1-1.045-.494,3.6,3.6,0,0,1-.632-.93,2.6,2.6,0,0,1-.253-.666q-.068-.3-.137-.574c-.047-.184-.085-.375-.116-.574q-.113-1.217-.24-2.411t-.218-2.41q-.092-1.079-.171-2.135c-.055-.7-.072-1.423-.058-2.158q.024-.62.011-1.24t-.011-1.24c.016-.26.027-.516.035-.769s.019-.509.035-.769c0-.26,0-.513-.011-.758s0-.5.011-.757a4.762,4.762,0,0,1,.138-.918,1.207,1.207,0,0,1,.654-.815,1.076,1.076,0,0,1,1.021-.011.98.98,0,0,1,.311.241q.125.15.24.31a2.613,2.613,0,0,1,.31.666c.069.23.135.467.195.712a12.5,12.5,0,0,1,.288,1.733,14.821,14.821,0,0,1,.058,1.733c-.016.4-.019.784-.013,1.159s.013.762.013,1.159h.022q.047.689.047,1.366c0,.452.014.907.046,1.366l.344,4.821c.014.169.024.325.024.471Z" transform="translate(55.442 391.976)"/><path class="a" d="M966.2-371.315a2.685,2.685,0,0,1-1.021.964,3.059,3.059,0,0,1-1.045.321,2.79,2.79,0,0,1-1.125-.092,4.322,4.322,0,0,1-.528-.872,5.071,5.071,0,0,1-.322-.987,20.518,20.518,0,0,1-.377-2.64q-.1-1.331-.151-2.663-.045-1.24-.1-2.445t-.058-2.445q0-1.7.024-3.386t.046-3.409q.024-1.584.011-3.157t.035-3.157q.024-1.354.082-2.686t.1-2.709c.016-.444.046-.88.093-1.309a4.64,4.64,0,0,1,.32-1.262,3.859,3.859,0,0,1,.437-.872.6.6,0,0,1,.286-.252,1.014,1.014,0,0,1,.38-.069,1.346,1.346,0,0,1,.894.252,2.262,2.262,0,0,1,.621.735,7.069,7.069,0,0,1,.7,2.124,19.162,19.162,0,0,1,.217,2.238q.047,1.08.069,2.135t.024,2.135q.021,1.584.024,3.157t-.047,3.157q0,1.056-.046,2.1t-.091,2.1q-.024,1.011-.035,1.986t-.013,1.963q0,.712.024,1.4t.046,1.4q0,.528.024,1.079t.022,1.1q.024.528.013,1.044t-.013,1.067c.061-.076.116-.149.162-.218s.1-.141.16-.218c.138-.138.272-.276.4-.413a4.118,4.118,0,0,1,.424-.39.461.461,0,0,1,.621.023.258.258,0,0,1,.137.253,2.318,2.318,0,0,1-.069.3,8.571,8.571,0,0,1-.608,1.343Q966.588-371.958,966.2-371.315Z" transform="translate(25.241 450.406)"/><path class="a" d="M1027.449-330.784q-.344.6-.7,1.159a9.2,9.2,0,0,0-.632,1.182q-.552,1.24-1.079,2.491t-1.056,2.514a12.635,12.635,0,0,0-.437,1.194q-.184.6-.412,1.194-.207.529-.415,1.022c-.137.329-.283.662-.435,1a2.5,2.5,0,0,1-.677.93,3.673,3.673,0,0,1-1,.585.656.656,0,0,1-.552-.011,4.877,4.877,0,0,0-.5-.218,2.448,2.448,0,0,1-1.4-1.24,8.875,8.875,0,0,1-.69-1.7q-.252-.872-.482-1.768a15.551,15.551,0,0,1-.435-2.468q-.116-1.228-.229-2.491-.139-1.193-.184-2.388t-.046-2.388c.014-.382.035-.761.057-1.136s.049-.746.08-1.114a2.392,2.392,0,0,1,.138-.62.8.8,0,0,1,.493-.562.824.824,0,0,1,.746.126,1.934,1.934,0,0,1,.757.8,6.762,6.762,0,0,1,.643,1.951q.16.987.253,2.02.068,1.011.173,2.009t.171,2.009q.116,1.194.322,2.342t.459,2.319a3.74,3.74,0,0,0,.138.528c.061.184.129.383.206.6.046-.092.085-.164.115-.218s.061-.111.093-.172q.389-1.079.746-2.146t.792-2.147q.733-1.813,1.549-3.581a19.8,19.8,0,0,1,1.986-3.375q.16-.23.344-.448t.368-.425a2.367,2.367,0,0,1,.6-.54,3.648,3.648,0,0,1,.734-.356,5.916,5.916,0,0,0,.713-.344.94.94,0,0,1,.723-.149.78.78,0,0,1,.539.471q.184.46.322.907c.091.3.176.6.251.907a29.947,29.947,0,0,1,.61,3.9q.172,1.952.286,3.926.139,2.434.173,4.844t-.08,4.844c-.047.918-.126,1.825-.242,2.721s-.256,1.794-.424,2.7a12.332,12.332,0,0,1-.424,1.607q-.264.78-.586,1.561a12.161,12.161,0,0,1-1.021,1.894,10.143,10.143,0,0,1-1.389,1.664,10.611,10.611,0,0,1-5.326,2.732,6.55,6.55,0,0,1-3.02-.1,8.257,8.257,0,0,1-2.7-1.366,9.34,9.34,0,0,1-2.284-2.445,12.414,12.414,0,0,1-1.389-3.042,5.087,5.087,0,0,1-.24-1.607,6.805,6.805,0,0,1,.218-1.607,2.03,2.03,0,0,1,.32-.689,7.393,7.393,0,0,0,.413-.643,2.507,2.507,0,0,1,.621-.723q.368-.287.735-.608l.275-.23c.091-.076.192-.153.3-.229.075-.031.163-.061.264-.092a.265.265,0,0,1,.218,0,.42.42,0,0,1,.171.218c.039.1.072.2.1.287a.711.711,0,0,1-.011.275q-.035.138-.08.276a6.374,6.374,0,0,0,.057,3.34,7.975,7.975,0,0,0,1.642,2.9,4.352,4.352,0,0,0,2.639,1.515,3.7,3.7,0,0,0,1.951-.149,5.339,5.339,0,0,0,1.676-1.022,5.524,5.524,0,0,0,1.205-1.549,9.758,9.758,0,0,0,.723-1.825,20.928,20.928,0,0,0,.69-3.375q.16-1.515.264-3.042t.195-3.065q.068-1.125.069-2.25t.045-2.25q.045-1.4.115-2.789t.138-2.789c.014-.321.027-.643.035-.964s.019-.635.035-.941A.488.488,0,0,1,1027.449-330.784Z" transform="translate(-17.804 392.427)"/><path class="a" d="M1219.573-369.572q.436-.183.814-.356t.746-.379q.667-.367,1.309-.746c.429-.253.856-.509,1.287-.769a3.651,3.651,0,0,0,.584-.413c.176-.153.357-.313.539-.482a5.725,5.725,0,0,0,.735-.781c.214-.275.429-.566.643-.872a8.191,8.191,0,0,0,.448-.78,5.709,5.709,0,0,0,.333-.827,5.986,5.986,0,0,0,.3-1.366q.068-.7.091-1.412a2.926,2.926,0,0,0-.022-.356,3.559,3.559,0,0,0-.069-.356.609.609,0,0,0-.482-.505.837.837,0,0,0-.413.012,2.507,2.507,0,0,0-.368.149,10.424,10.424,0,0,0-1.1.827,9.7,9.7,0,0,0-1.149,1.159q-.528.632-.987,1.3l-.413.6q-.208.3-.413.62a20.81,20.81,0,0,0-1.274,2.273q-.563,1.171-1.09,2.365a1.23,1.23,0,0,0-.115.517A2.725,2.725,0,0,0,1219.573-369.572Zm-.3-2.938a1.392,1.392,0,0,1,.091-.2c.031-.054.061-.111.093-.172a16.924,16.924,0,0,1,.883-1.963c.33-.62.669-1.243,1.023-1.871a13.843,13.843,0,0,1,3.075-3.788,5.741,5.741,0,0,1,1.768-1.079,1.809,1.809,0,0,1,1.425-.011,2.214,2.214,0,0,1,1.078.953,4.965,4.965,0,0,1,.517,1.354,12.068,12.068,0,0,1,.218,1.423,6.209,6.209,0,0,1-.035,1.641,9.623,9.623,0,0,1-.4,1.6,1.553,1.553,0,0,1-.115.23l-.137.23a10.3,10.3,0,0,1-1.391,1.917,14.223,14.223,0,0,1-1.733,1.6,14.889,14.889,0,0,1-1.768,1.194,9.66,9.66,0,0,1-1.951.85c-.336.107-.674.21-1.01.31s-.68.2-1.032.31a1.53,1.53,0,0,1-.162.115l.047.5c.014.169.03.337.046.505.03.367.061.739.091,1.113s.077.746.138,1.113q.116.987.287,1.951t.286,1.952q.139.964.229,1.94t.208,1.963q.045.6.08,1.194t.035,1.194q0,.39-.024.792a4.628,4.628,0,0,1-.115.792,4.524,4.524,0,0,1-.24.677c-.1.222-.195.448-.288.677a1.6,1.6,0,0,1-.1.218,1.883,1.883,0,0,0-.1.218.29.29,0,0,1-.413.184,3.747,3.747,0,0,1-.471-.253,1.161,1.161,0,0,1-.379-.413,5.938,5.938,0,0,1-.586-1.435,9.49,9.49,0,0,1-.264-1.55,6.8,6.8,0,0,0-.16-.987,9.952,9.952,0,0,1-.184-.987q-.116-.734-.195-1.481c-.053-.5-.12-1-.195-1.5l-.138-.964q-.092-.735-.184-1.481t-.16-1.481q-.092-.757-.149-1.515t-.1-1.515c-.077-.827-.137-1.649-.184-2.468s-.1-1.642-.16-2.468q-.068-1.1-.138-2.216t-.115-2.215a6.465,6.465,0,0,1-.035-.838q.012-.425.035-.838a2.891,2.891,0,0,1,.08-.39c.039-.138.08-.268.127-.39a.424.424,0,0,1,.459-.275,1.487,1.487,0,0,1,1.423.964,7.747,7.747,0,0,1,.275.941q.116.574.229,1.136t.231,1.136c.046.26.086.521.126.781s.08.52.126.781C1219.2-372.747,1219.227-372.648,1219.274-372.51Z" transform="translate(-189.358 431.26)"/><path class="a" d="M1311.629-371.315a2.689,2.689,0,0,1-1.023.964,3.051,3.051,0,0,1-1.043.321,2.788,2.788,0,0,1-1.125-.092,4.189,4.189,0,0,1-.528-.872,4.966,4.966,0,0,1-.322-.987,20.532,20.532,0,0,1-.379-2.64q-.1-1.331-.149-2.663-.047-1.24-.1-2.445t-.057-2.445q0-1.7.022-3.386t.046-3.409q.024-1.584.013-3.157t.035-3.157c.014-.9.042-1.8.08-2.686s.072-1.791.1-2.709c.014-.444.046-.88.091-1.309a4.59,4.59,0,0,1,.322-1.262,3.849,3.849,0,0,1,.435-.872.605.605,0,0,1,.287-.252,1,1,0,0,1,.379-.069,1.35,1.35,0,0,1,.9.252,2.26,2.26,0,0,1,.619.735,7.075,7.075,0,0,1,.7,2.124,19.5,19.5,0,0,1,.218,2.238q.045,1.08.069,2.135t.022,2.135q.023,1.584.023,3.157t-.046,3.157q0,1.056-.047,2.1t-.091,2.1q-.023,1.011-.035,1.986t-.011,1.963q0,.712.022,1.4t.047,1.4q0,.528.022,1.079t.024,1.1q.023.528.011,1.044t-.011,1.067q.092-.115.16-.218a2.686,2.686,0,0,1,.162-.218q.205-.207.4-.413a4.143,4.143,0,0,1,.426-.39.459.459,0,0,1,.619.023.262.262,0,0,1,.138.253,3.007,3.007,0,0,1-.069.3,8.537,8.537,0,0,1-.608,1.343Q1312.017-371.958,1311.629-371.315Z" transform="translate(-265.918 450.406)"/><path class="a" d="M1362.92-316.433h.115a.882.882,0,0,0,.206-.092,5.257,5.257,0,0,0,2-2.089c.137-.26.264-.52.379-.781s.24-.52.379-.78q.389-.735.837-1.424a6.667,6.667,0,0,0,.723-1.492,12.266,12.266,0,0,1,.529-1.217q.3-.6.55-1.194.32-.78.643-1.561a14.569,14.569,0,0,0,.552-1.584c.046-.168.083-.337.115-.505a1.327,1.327,0,0,0-.024-.551,2.854,2.854,0,0,0-.47.126,2.956,2.956,0,0,0-.424.2q-.827.413-1.62.872a15.4,15.4,0,0,0-1.526,1.01q-.6.46-1.125.953a3.848,3.848,0,0,0-.85,1.159c-.091.2-.187.394-.286.585a5.613,5.613,0,0,0-.266.585q-.184.482-.355.976a9.379,9.379,0,0,0-.287,1,5.642,5.642,0,0,0-.16.884q-.047.448-.091.907a10.9,10.9,0,0,0-.082,1.515,9.346,9.346,0,0,0,.149,1.515,4.779,4.779,0,0,0,.127.516A1.244,1.244,0,0,0,1362.92-316.433Zm11.02,5.648a1.164,1.164,0,0,1-.506-.069,1.622,1.622,0,0,1-.448-.184,1.634,1.634,0,0,1-.448-.39,8.145,8.145,0,0,1-1.056-2.089q-.368-1.1-.643-2.273c-.107-.474-.2-.949-.275-1.423s-.138-.956-.184-1.446q-.115-1.1-.242-2.17T1369.9-323c-.016-.2-.027-.4-.035-.6s-.027-.413-.058-.643c-.137.169-.256.326-.355.471a2.065,2.065,0,0,0-.242.471,19.782,19.782,0,0,1-.952,2.147q-.54,1.045-1.09,2.1a7.317,7.317,0,0,0-.437.884,7.331,7.331,0,0,1-.435.884,6.786,6.786,0,0,1-.391.609q-.205.287-.413.562a13.8,13.8,0,0,1-1.056,1.159,4.619,4.619,0,0,1-1.285.884,4.332,4.332,0,0,1-2.434.482,2.012,2.012,0,0,1-1.045-.367,3.426,3.426,0,0,1-.792-.8,3.334,3.334,0,0,1-.539-1.033,6.207,6.207,0,0,1-.242-1.148,9.16,9.16,0,0,1-.057-2.192,19.873,19.873,0,0,1,.333-2.193q.184-.8.4-1.573a7.661,7.661,0,0,1,.609-1.5,11.7,11.7,0,0,1,2.341-3.1,18.691,18.691,0,0,1,1.813-1.515,12.829,12.829,0,0,1,2.044-1.217,16.122,16.122,0,0,1,2.215-.872,16.208,16.208,0,0,1,2.285-.528.257.257,0,0,0,.115-.023.2.2,0,0,1,.091-.023q.184-.574.346-1.09c.105-.344.222-.692.344-1.045a.523.523,0,0,1,.286-.356.94.94,0,0,1,.54-.057,1.084,1.084,0,0,1,.861.471,1.887,1.887,0,0,1,.333.815,3.985,3.985,0,0,1,.08,1.079q-.035.551-.08,1.079-.071,1.355-.115,2.7a22.456,22.456,0,0,0,.068,2.7q.139,1.7.4,3.34t.632,3.294q.207.988.459,1.963t.5,1.94q.139.551.311,1.079t.355,1.079c.016.061.038.169.069.321a.778.778,0,0,1-.069.516,2.23,2.23,0,0,1-.344.425,1.439,1.439,0,0,1-.4.287c-.146.069-.287.134-.426.2Q1374.192-310.854,1373.94-310.785Z" transform="translate(-308.991 391.23)"/><path class="a" d="M1486.465-320.006q.137-.459.275-.93t.253-.93q.182-.78.413-1.527a13.87,13.87,0,0,1,.55-1.481q.323-.8.677-1.618t.746-1.619q.346-.711.724-1.4t.768-1.355q.321-.551.643-1.079t.69-1.056a5.137,5.137,0,0,1,.515-.654c.192-.207.38-.417.563-.631q.16-.183.311-.333c.1-.1.2-.21.309-.333a.981.981,0,0,1,.8-.367c.17.015.325.031.471.046a4.235,4.235,0,0,0,.448.023.643.643,0,0,1,.435.2,3.989,3.989,0,0,1,.3.356,1.969,1.969,0,0,1,.287.482,4.02,4.02,0,0,1,.173.528,11.807,11.807,0,0,1,.286,2.238,20.229,20.229,0,0,1-.056,2.261q-.071.964-.149,1.929t-.127,1.928q-.115,1.676-.16,3.352t.024,3.352q.045.8.08,1.607a12.952,12.952,0,0,0,.171,1.607c.031.169.058.326.082.471s.049.295.08.448a2.118,2.118,0,0,1,.056.356.535.535,0,0,1-.125.356c0,.015,0,.023-.011.023s-.013.008-.013.023a.609.609,0,0,1-.171.574,2.327,2.327,0,0,1-.517.321c-.2.077-.39.157-.573.241s-.384.165-.6.241a1.52,1.52,0,0,1-.976,0,1.578,1.578,0,0,1-.815-.551.407.407,0,0,1-.08-.207.83.83,0,0,0-.058-.23.688.688,0,0,1-.022-.172.7.7,0,0,0-.024-.172,23.547,23.547,0,0,1-.413-5.1c0-.337,0-.669-.011-1a8.48,8.48,0,0,1,.034-1q.045-.8.126-1.607t.149-1.607q.068-.666.149-1.332t.195-1.332q.068-.528.173-1.056t.195-1.056q.16-.987.344-1.963a14.066,14.066,0,0,0,.229-1.986,1.159,1.159,0,0,0,.013-.275c-.008-.092-.013-.2-.013-.322a4.541,4.541,0,0,0-1.147,1.148c-.17.26-.325.524-.471.792s-.3.532-.448.792c-.168.291-.341.582-.515.872s-.349.582-.517.872a9.509,9.509,0,0,0-.482.964q-.323.689-.632,1.366t-.632,1.366c-.091.215-.176.44-.253.677s-.152.471-.229.7c-.2.6-.394,1.194-.584,1.791s-.38,1.194-.562,1.791a6.549,6.549,0,0,0-.253.93q-.092.471-.229.93a6.731,6.731,0,0,0-.229,1.366q-.047.7-.162,1.389a6.144,6.144,0,0,1-.126.643,6.241,6.241,0,0,0-.125.643c-.031.2-.055.394-.069.585a2.4,2.4,0,0,1-.115.563,3.314,3.314,0,0,1-.322.826.9.9,0,0,1-.195.276,1.837,1.837,0,0,1-.309.206,1.021,1.021,0,0,1-.333.08c-.115.008-.234.011-.357.011s-.232,0-.331-.011a.379.379,0,0,1-.266-.149,3.657,3.657,0,0,1-.757-1.148,10.235,10.235,0,0,1-.55-1.848q-.184-.93-.3-1.894-.115-1.1-.253-2.2t-.206-2.2q-.071-1.309-.082-2.629t-.011-2.652q0-1.033.057-2.066t.1-2.089c.047-.872.115-1.775.208-2.709a4.583,4.583,0,0,1,.16-.781,2.382,2.382,0,0,1,.367-.734.8.8,0,0,1,.619-.39,1.551,1.551,0,0,1,.6.023.826.826,0,0,1,.482.39,3.878,3.878,0,0,1,.333.631,2.757,2.757,0,0,1,.173.7q.045.459.115.884t.137.884c.077.429.134.849.173,1.263s.064.842.08,1.286c.031.643.064,1.278.1,1.906s.072,1.263.1,1.905q.047,1.033.093,2.055t.091,2.055q.023.322.047.631c.014.207.038.417.068.631Z" transform="translate(-413.71 392.141)"/><path class="a" d="M1532.792-376.678l-.134-2.149c-.014-.282-.014-.631-.028-1.021h-.039c-.094.322-.2.752-.31,1.088l-.658,2.029h-.753l-.658-2.082c-.066-.282-.174-.712-.255-1.034h-.041c0,.336-.013.685-.027,1.021l-.133,2.149h-.7l.269-3.654h1.089l.63,1.787c.082.282.149.551.242.927h.014c.094-.336.174-.645.255-.913l.632-1.8h1.048l.283,3.654Zm-3.95-3.654v.6h-1.169v3.049h-.726v-3.049h-1.167v-.6Z" transform="translate(-450.409 430.082)"/></g></svg>