<svg xmlns="http://www.w3.org/2000/svg" xmlns:xlink="http://www.w3.org/1999/xlink" width="28" height="28" viewBox="0 0 28 28"><defs><style>.a{fill:#fff;}.b{clip-path:url(#a);}</style><clipPath id="a"><rect class="a" width="28" height="28" transform="translate(0.449)"/></clipPath></defs><g class="b" transform="translate(-0.449)"><path class="a" d="M27.341,10.812l-2.152-.468a11.712,11.712,0,0,0-.693-1.67l1.191-1.853a.837.837,0,0,0-.112-1.044L22.223,2.424a.837.837,0,0,0-1.044-.112L19.326,3.5a11.712,11.712,0,0,0-1.67-.693L17.188.659A.837.837,0,0,0,16.371,0H11.629a.837.837,0,0,0-.818.659l-.468,2.152a11.712,11.712,0,0,0-1.67.693L6.821,2.312a.837.837,0,0,0-1.044.112L2.424,5.777a.837.837,0,0,0-.112,1.044L3.5,8.674a11.712,11.712,0,0,0-.693,1.67l-2.152.468A.837.837,0,0,0,0,11.629v4.741a.837.837,0,0,0,.659.818l2.152.468a11.712,11.712,0,0,0,.693,1.67L2.312,21.179a.837.837,0,0,0,.112,1.044l3.353,3.353a.837.837,0,0,0,1.044.112L8.674,24.5a11.712,11.712,0,0,0,1.67.693l.468,2.152a.837.837,0,0,0,.818.659h4.741a.837.837,0,0,0,.818-.659l.468-2.152a11.712,11.712,0,0,0,1.67-.693l1.853,1.191a.837.837,0,0,0,1.044-.112l3.353-3.353a.837.837,0,0,0,.112-1.044L24.5,19.326a11.712,11.712,0,0,0,.693-1.67l2.152-.468A.837.837,0,0,0,28,16.371V11.629A.837.837,0,0,0,27.341,10.812ZM19.02,14A5.02,5.02,0,1,1,14,8.98,5.026,5.026,0,0,1,19.02,14Zm0,0"/></g></svg>