<svg xmlns="http://www.w3.org/2000/svg" xmlns:xlink="http://www.w3.org/1999/xlink" width="28" height="28" viewBox="0 0 28 28"><defs><style>.a{fill:#fff;}.b{clip-path:url(#a);}</style><clipPath id="a"><rect class="a" width="28" height="28"/></clipPath></defs><g class="b"><g transform="translate(2.32 0)"><path class="a" d="M11.5,13.488a6.525,6.525,0,0,0,4.768-1.976,6.525,6.525,0,0,0,1.976-4.768,6.526,6.526,0,0,0-1.976-4.768A6.527,6.527,0,0,0,11.5,0,6.525,6.525,0,0,0,6.735,1.976,6.526,6.526,0,0,0,4.76,6.744a6.525,6.525,0,0,0,1.976,4.768A6.527,6.527,0,0,0,11.5,13.488Zm0,0" transform="translate(0 0)"/><path class="a" d="M23.3,21.53a16.657,16.657,0,0,0-.227-1.769,13.939,13.939,0,0,0-.435-1.779,8.786,8.786,0,0,0-.731-1.659,6.26,6.26,0,0,0-1.1-1.437,4.862,4.862,0,0,0-1.584-1,5.474,5.474,0,0,0-2.022-.366,2.052,2.052,0,0,0-1.1.465c-.329.214-.713.462-1.142.736a6.543,6.543,0,0,1-1.477.651,5.737,5.737,0,0,1-3.614,0A6.527,6.527,0,0,1,8.4,14.726c-.425-.272-.809-.519-1.143-.737a2.05,2.05,0,0,0-1.1-.465,5.467,5.467,0,0,0-2.022.366,4.858,4.858,0,0,0-1.584,1,6.261,6.261,0,0,0-1.1,1.437,8.8,8.8,0,0,0-.731,1.659,13.973,13.973,0,0,0-.435,1.779,16.6,16.6,0,0,0-.227,1.77C.019,22.067,0,22.623,0,23.185A4.649,4.649,0,0,0,1.381,26.7,4.971,4.971,0,0,0,4.939,28H18.421a4.97,4.97,0,0,0,3.558-1.3,4.647,4.647,0,0,0,1.381-3.518c0-.564-.019-1.121-.057-1.654Zm0,0" transform="translate(0 0)"/></g></g></svg>